<svg xmlns="http://www.w3.org/2000/svg" width="512" height="512" viewBox="0 0 512 512" role="img" aria-label="Pettography">
  <defs>
    <linearGradient id="bg" x1="70" y1="40" x2="442" y2="476" gradientUnits="userSpaceOnUse">
      <stop stop-color="#4f46e5"/>
      <stop offset=".56" stop-color="#1f2937"/>
      <stop offset="1" stop-color="#4f46e5"/>
    </linearGradient>
    <radialGradient id="glow" cx="72%" cy="23%" r="68%">
      <stop stop-color="#14b8a6" stop-opacity=".72"/>
      <stop offset=".58" stop-color="#f97316" stop-opacity=".24"/>
      <stop offset="1" stop-color="#1f2937" stop-opacity="0"/>
    </radialGradient>
    <filter id="shadow" x="-20%" y="-20%" width="140%" height="140%">
      <feDropShadow dx="0" dy="18" stdDeviation="22" flood-color="#1f2937" flood-opacity=".34"/>
    </filter>
  </defs>
  <rect width="512" height="512" rx="94" fill="url(#bg)"/>
  <rect width="512" height="512" rx="94" fill="url(#glow)"/>
  <path d="M46 342C154 278 238 414 466 292" fill="none" stroke="#f8fafc" stroke-opacity=".1" stroke-width="26" stroke-linecap="round"/>
  <g filter="url(#shadow)">
        <g transform="translate(-20 -20) scale(1.08)">
          <rect x="122" y="158" width="268" height="210" rx="54" fill="#f8fafc"/>
          <circle cx="256" cy="264" r="76" fill="#1f2937"/>
          <circle cx="256" cy="264" r="43" fill="#14b8a6"/>
          <circle cx="256" cy="264" r="18" fill="#f8fafc"/>
          <path d="M190 164l42-50h96l42 50" fill="none" stroke="#f8fafc" stroke-width="28" stroke-linecap="round" stroke-linejoin="round"/>
          <circle cx="356" cy="172" r="29" fill="#f97316"/>
          <circle cx="183" cy="381" r="20" fill="#14b8a6"/><circle cx="225" cy="384" r="20" fill="#f97316"/><ellipse cx="204" cy="422" rx="42" ry="28" fill="#f8fafc"/>
        </g></g>
</svg>
