<svg xmlns="http://www.w3.org/2000/svg" width="1200" height="630" viewBox="0 0 1200 630" role="img" aria-label="Pettography">
  <defs>
    <linearGradient id="bg" x1="0" y1="0" x2="1200" y2="630" gradientUnits="userSpaceOnUse">
      <stop stop-color="#1f2937"/>
      <stop offset=".58" stop-color="#4f46e5"/>
      <stop offset="1" stop-color="#14b8a6"/>
    </linearGradient>
    <radialGradient id="halo" cx="78%" cy="19%" r="62%">
      <stop stop-color="#f97316" stop-opacity=".82"/>
      <stop offset=".56" stop-color="#14b8a6" stop-opacity=".22"/>
      <stop offset="1" stop-color="#1f2937" stop-opacity="0"/>
    </radialGradient>
    <filter id="soft" x="-20%" y="-20%" width="140%" height="140%">
      <feDropShadow dx="0" dy="18" stdDeviation="24" flood-color="#1f2937" flood-opacity=".26"/>
    </filter>
  </defs>
  <rect width="1200" height="630" fill="url(#bg)"/>
  <rect width="1200" height="630" fill="url(#halo)"/>
  <path d="M0 498C166 430 340 458 512 512c176 54 336 44 504-54 72-42 126-57 184-54v226H0Z" fill="#f8fafc" opacity=".12"/>
  <path d="M74 96h216M74 542h412" stroke="#f8fafc" stroke-opacity=".16" stroke-width="16" stroke-linecap="round"/>
  <g transform="translate(84 86)" filter="url(#soft)">
    <svg width="104" height="104" viewBox="0 0 512 512">
  <rect width="512" height="512" rx="116" fill="url(#bg)"/>
  <rect width="512" height="512" rx="116" fill="url(#glow)"/>
  <path d="M46 342C154 278 238 414 466 292" fill="none" stroke="#f8fafc" stroke-opacity=".1" stroke-width="26" stroke-linecap="round"/>
  <g filter="url(#shadow)">
        <g transform="translate(0 0) scale(1)">
          <rect x="122" y="158" width="268" height="210" rx="54" fill="#f8fafc"/>
          <circle cx="256" cy="264" r="76" fill="#1f2937"/>
          <circle cx="256" cy="264" r="43" fill="#14b8a6"/>
          <circle cx="256" cy="264" r="18" fill="#f8fafc"/>
          <path d="M190 164l42-50h96l42 50" fill="none" stroke="#f8fafc" stroke-width="28" stroke-linecap="round" stroke-linejoin="round"/>
          <circle cx="356" cy="172" r="29" fill="#f97316"/>
          <circle cx="183" cy="381" r="20" fill="#14b8a6"/><circle cx="225" cy="384" r="20" fill="#f97316"/><ellipse cx="204" cy="422" rx="42" ry="28" fill="#f8fafc"/>
        </g></g>
</svg>
  </g>
  <text x="214" y="148" font-family="Inter, Pretendard, system-ui, -apple-system, BlinkMacSystemFont, 'Segoe UI', sans-serif" font-size="34" font-weight="900" fill="#f8fafc">Pettography</text>
  <text x="92" y="270" font-family="Inter, Pretendard, system-ui, -apple-system, BlinkMacSystemFont, 'Segoe UI', sans-serif" font-size="62" font-weight="900" fill="#f8fafc">Pettography</text>
  <text x="94" y="335" font-family="Pretendard, system-ui, -apple-system, BlinkMacSystemFont, 'Segoe UI', sans-serif" font-size="27" font-weight="700" fill="#f8fafc" opacity=".86">희귀 반려동물의 입양, 사육, 의료, 일상을 연결하는 라이프사이클 포탈</text>
  <g transform="translate(92 485)"><rect width="166" height="44" rx="22" fill="#f8fafc" opacity=".13" stroke="#f8fafc" stroke-opacity=".26"/><text x="83" y="28" text-anchor="middle" font-size="15" font-weight="800" fill="#f8fafc">종 가이드</text></g><g transform="translate(282 485)"><rect width="166" height="44" rx="22" fill="#f8fafc" opacity=".13" stroke="#f8fafc" stroke-opacity=".26"/><text x="83" y="28" text-anchor="middle" font-size="15" font-weight="800" fill="#f8fafc">건강 기록</text></g><g transform="translate(472 485)"><rect width="166" height="44" rx="22" fill="#f8fafc" opacity=".13" stroke="#f8fafc" stroke-opacity=".26"/><text x="83" y="28" text-anchor="middle" font-size="15" font-weight="800" fill="#f8fafc">위치 기반</text></g>
  <g filter="url(#soft)">
    <g transform="translate(722 116)">
      <rect width="342" height="330" rx="46" fill="#f8fafc" opacity=".94"/>
      <rect x="34" y="36" width="176" height="22" rx="11" fill="#1f2937" opacity=".84"/>
      <rect x="34" y="82" width="252" height="14" rx="7" fill="#1f2937" opacity=".22"/>
      <rect x="34" y="112" width="206" height="14" rx="7" fill="#1f2937" opacity=".14"/>
      <g transform="translate(34 156) scale(.56)">
        <g transform="translate(0 0) scale(1)">
          <rect x="122" y="158" width="268" height="210" rx="54" fill="#f8fafc"/>
          <circle cx="256" cy="264" r="76" fill="#1f2937"/>
          <circle cx="256" cy="264" r="43" fill="#14b8a6"/>
          <circle cx="256" cy="264" r="18" fill="#f8fafc"/>
          <path d="M190 164l42-50h96l42 50" fill="none" stroke="#f8fafc" stroke-width="28" stroke-linecap="round" stroke-linejoin="round"/>
          <circle cx="356" cy="172" r="29" fill="#f97316"/>
          <circle cx="183" cy="381" r="20" fill="#14b8a6"/><circle cx="225" cy="384" r="20" fill="#f97316"/><ellipse cx="204" cy="422" rx="42" ry="28" fill="#f8fafc"/>
        </g></g>
      <rect x="216" y="177" width="72" height="118" rx="24" fill="#14b8a6" opacity=".88"/>
      <rect x="104" y="252" width="184" height="22" rx="11" fill="#f97316" opacity=".82"/>
    </g></g>
</svg>
